<?xml version="1.0" encoding="UTF-8"?>
<svg width="25px" height="25px" viewBox="0 0 25 25" version="1.1" xmlns="http://www.w3.org/2000/svg" xmlns:xlink="http://www.w3.org/1999/xlink">
    <!-- Generator: Sketch 53.2 (72643) - https://sketchapp.com -->
    <title>dribbble-icon</title>
    <desc>Created with Sketch.</desc>
    <g id="Symbols" stroke="none" stroke-width="1" fill="none" fill-rule="evenodd">
        <g id="nav" transform="translate(-137.000000, -495.000000)" fill="#FFFFFF">
            <g id="social">
                <g transform="translate(137.000000, 413.000000)">
                    <path d="M12.5,82 C5.59925,82 0,87.59925 0,94.5 C0,101.40075 5.59925,107 12.5,107 C19.38725,107 25,101.40075 25,94.5 C25,87.59925 19.38725,82 12.5,82 Z M20.7565,87.762 C22.24775,89.5785 23.14275,91.897 23.16975,94.405 C22.81725,94.33725 19.29225,93.61875 15.74025,94.06625 C15.659,93.89 15.591,93.7 15.50975,93.51025 C15.29275,92.995 15.04875,92.4665 14.80475,91.96475 C18.7365,90.365 20.526,88.06025 20.7565,87.762 Z M12.5,83.84375 C15.2115,83.84375 17.6925,84.8605 19.577,86.52825 C19.38725,86.79925 17.77375,88.955 13.97775,90.3785 C12.22875,87.1655 10.29,84.53525 9.99175,84.1285 C10.79175,83.93875 11.63225,83.84375 12.5,83.84375 Z M7.95825,84.847 C8.243,85.22675 10.141,87.8705 11.917,91.01575 C6.92775,92.34425 2.52175,92.31725 2.04725,92.3172912 C2.7385,89.00925 4.9755,86.257 7.95825,84.847 Z M1.81675,94.5135 C1.81675,94.405 1.81675,94.29675 1.81675,94.18825 C2.27775,94.20175 7.4565,94.2695 12.78475,92.66975 C13.0965,93.26625 13.38125,93.87625 13.6525,94.4865 C13.51675,94.52725 13.36775,94.56775 13.232,94.6085 C7.72775,96.3845 4.79925,101.238 4.55525,101.64475 C2.86075,99.76025 1.81675,97.25225 1.81675,94.5135 Z M12.5,105.18325 C10.0325,105.18325 7.755,104.34275 5.95175,102.93275 C6.1415,102.5395 8.31075,98.364 14.33025,96.2625 C14.3575,96.249 14.371,96.249 14.398,96.23525 C15.903,100.12625 16.513,103.39375 16.67575,104.32925 C15.38775,104.885 13.97775,105.18325 12.5,105.18325 Z M16.3775,95.74725 C19.72625,95.2185 22.6545,96.08625 23.0205,96.20825 C22.55975,99.17725 20.8515,101.73975 18.45175,103.353 C18.34325,102.70225 17.77375,99.584 16.3775,95.74725 Z" id="dribbble-icon"></path>
                </g>
            </g>
        </g>
    </g>
</svg>