<?xml version="1.0" encoding="UTF-8"?>
<svg width="26px" height="25px" viewBox="0 0 26 25" version="1.1" xmlns="http://www.w3.org/2000/svg" xmlns:xlink="http://www.w3.org/1999/xlink">
    <!-- Generator: Sketch 53.2 (72643) - https://sketchapp.com -->
    <title>github-icon</title>
    <desc>Created with Sketch.</desc>
    <g id="Symbols" stroke="none" stroke-width="1" fill="none" fill-rule="evenodd">
        <g id="nav" transform="translate(-137.000000, -413.000000)" fill="#FFFFFE">
            <g id="social">
                <g transform="translate(137.000000, 413.000000)">
                    <path d="M12.8151599,0 C5.73881241,0 7.10542736e-15,5.73802563 7.10542736e-15,12.8167335 C7.10542736e-15,18.4792277 3.67192727,23.2825524 8.7647889,24.977288 C9.40601897,25.0953058 9.63969422,24.6995528 9.63969422,24.3596615 C9.63969422,24.0551756 9.62867923,23.2495074 9.62238494,22.1802661 C6.05746048,22.9544629 5.30529368,20.4619268 5.30529368,20.4619268 C4.72228573,18.9811968 3.88199896,18.5870173 3.88199896,18.5870173 C2.71834342,17.7923641 3.97011892,17.8080998 3.97011892,17.8080998 C5.25651299,17.8985801 5.93314839,19.1291124 5.93314839,19.1291124 C7.07634752,21.0874212 8.93316097,20.5217225 9.66329778,20.193633 C9.77974202,19.3659348 10.1109787,18.8010229 10.4768338,18.4808013 C7.6310312,18.1574325 4.63888648,17.0575066 4.63888648,12.1463924 C4.63888648,10.747488 5.13849518,9.60271531 5.95832553,8.70735357 C5.82614559,8.383198 5.38633257,7.07949466 6.08421118,5.31552189 C6.08421118,5.31552189 7.15974677,4.9709099 9.60822281,6.62945344 C10.630257,6.34463714 11.7270358,6.20301577 12.8167335,6.19750828 C13.9056444,6.20301577 15.0016364,6.34463714 16.0252442,6.62945344 C18.4721467,4.9709099 19.5461087,5.31552189 19.5461087,5.31552189 C20.2455609,7.07949466 19.8057479,8.383198 19.6743547,8.70735357 C20.4957586,9.60271531 20.9914334,10.747488 20.9914334,12.1463924 C20.9914334,17.0700952 17.994568,18.1534986 15.1401107,18.4705731 C15.5995933,18.8663261 16.0095085,19.6483908 16.0095085,20.8435177 C16.0095085,22.5571363 15.9937728,23.9395181 15.9937728,24.3596615 C15.9937728,24.7026999 16.2250877,25.1016001 16.8749724,24.9765012 C21.9639001,23.2778316 25.6326802,18.4776542 25.6326802,12.8167335 C25.6326802,5.73802563 19.8938678,0 12.8151599,0" id="github-icon"></path>
                </g>
            </g>
        </g>
    </g>
</svg>