<?xml version="1.0" encoding="UTF-8"?>
<svg width="25px" height="25px" viewBox="0 0 25 25" version="1.1" xmlns="http://www.w3.org/2000/svg" xmlns:xlink="http://www.w3.org/1999/xlink">
    <!-- Generator: Sketch 53.2 (72643) - https://sketchapp.com -->
    <title>linkedin-icon</title>
    <desc>Created with Sketch.</desc>
    <defs>
        <polygon id="path-1" points="0 0 25.0006944 0 25.0006944 24.9583333 0 24.9583333"></polygon>
    </defs>
    <g id="Symbols" stroke="none" stroke-width="1" fill="none" fill-rule="evenodd">
        <g id="nav" transform="translate(-137.000000, -454.000000)">
            <g id="social">
                <g transform="translate(137.000000, 413.000000)">
                    <g id="linkedin-icon" transform="translate(0.000000, 41.000000)">
                        <mask id="mask-2" fill="white">
                            <use xlink:href="#path-1"></use>
                        </mask>
                        <g id="Clip-2"></g>
                        <path d="M21.3020833,21.3027778 L17.5972222,21.3027778 L17.5972222,15.5013889 C17.5972222,14.1180556 17.5708333,12.3381944 15.6701389,12.3381944 C13.7402778,12.3381944 13.4458333,13.8444444 13.4458333,15.4013889 L13.4458333,21.3027778 L9.74236111,21.3027778 L9.74236111,9.37291667 L13.2965278,9.37291667 L13.2965278,11.0027778 L13.3479167,11.0027778 C13.8423611,10.0645833 15.0527778,9.07569444 16.85625,9.07569444 C20.6083333,9.07569444 21.3020833,11.5458333 21.3020833,14.7590278 L21.3020833,21.3027778 Z M5.56180556,7.74097222 C4.37013889,7.74097222 3.41041667,6.77777778 3.41041667,5.59097222 C3.41041667,4.40555556 4.37013889,3.44166667 5.56180556,3.44166667 C6.74791667,3.44166667 7.71111111,4.40555556 7.71111111,5.59097222 C7.71111111,6.77777778 6.74791667,7.74097222 5.56180556,7.74097222 Z M3.70486111,21.3027778 L7.41666667,21.3027778 L7.41666667,9.37291667 L3.70486111,9.37291667 L3.70486111,21.3027778 Z M23.1486111,0 L1.84375,0 C0.826388889,0 0,0.806944444 0,1.80138889 L0,23.1958333 C0,24.1916667 0.826388889,25 1.84375,25 L23.1486111,25 C24.1680556,25 25.0006944,24.1916667 25.0006944,23.1958333 L25.0006944,1.80138889 C25.0006944,0.806944444 24.1680556,0 23.1486111,0 L23.1486111,0 Z" id="Fill-1" fill="#FFFFFE" mask="url(#mask-2)"></path>
                    </g>
                </g>
            </g>
        </g>
    </g>
</svg>